<?xml version="1.0" standalone="no"?>
<!DOCTYPE svg PUBLIC "-//W3C//DTD SVG 20010904//EN"
 "http://www.w3.org/TR/2001/REC-SVG-20010904/DTD/svg10.dtd">
<svg version="1.0" xmlns="http://www.w3.org/2000/svg"
 width="300.000000pt" height="169.000000pt" viewBox="0 0 300.000000 169.000000"
 preserveAspectRatio="xMidYMid meet">
<metadata>
Created by potrace 1.10, written by Peter Selinger 2001-2011
</metadata>
<g transform="translate(0.000000,169.000000) scale(0.050000,-0.050000)"
fill="#000000" stroke="none">
<path d="M1452 3330 c10 -41 5 -50 -28 -50 -22 0 -54 -5 -70 -11 -21 -8 -27 2
-23 40 7 60 -29 67 -74 13 -18 -20 -43 -41 -57 -45 -13 -5 -26 -39 -29 -77 -3
-37 -16 -72 -28 -76 -21 -7 -32 20 -25 61 5 32 -94 13 -128 -25 -20 -22 -57
-40 -83 -40 -27 0 -59 -20 -77 -48 -18 -26 -49 -52 -71 -58 -41 -11 -59 -134
-19 -134 11 0 20 -9 20 -20 0 -11 -36 -20 -81 -20 -74 0 -84 -6 -110 -69 -16
-39 -56 -90 -89 -114 -94 -70 -72 -172 45 -208 25 -8 68 -30 95 -49 28 -20 59
-34 70 -33 11 2 23 -17 26 -42 5 -30 -3 -45 -25 -45 -17 0 -31 9 -31 20 0 11
-11 18 -24 15 -13 -3 -25 13 -25 35 -1 37 -12 42 -71 33 -11 -2 -20 -13 -20
-26 0 -13 -23 -53 -51 -90 -35 -45 -47 -81 -39 -108 12 -36 7 -39 -40 -27
-132 33 -191 -74 -89 -160 34 -28 56 -61 48 -73 -35 -57 11 -122 83 -116 79 7
107 -21 93 -94 -10 -50 -52 -66 -76 -28 -44 72 -209 49 -209 -30 0 -44 95
-145 150 -159 57 -14 68 -71 15 -75 -19 -1 -69 0 -111 2 -142 9 -190 -89 -74
-149 65 -34 89 -132 44 -177 -35 -35 -18 -95 37 -129 56 -35 127 15 128 90 1
39 13 57 41 62 22 4 54 26 72 48 31 40 34 36 108 -97 42 -75 82 -141 88 -147
52 -44 6 -74 -60 -39 -75 40 -120 5 -116 -88 3 -45 -2 -102 -9 -125 -26 -80
19 -154 88 -144 51 8 62 2 71 -42 6 -29 15 -63 19 -77 10 -31 93 -33 123 -3
35 35 100 2 112 -58 17 -83 94 -122 131 -67 41 64 83 54 83 -18 0 -53 6 -60
42 -49 33 11 40 6 35 -27 -4 -24 17 -65 51 -101 l58 -60 76 39 c100 51 170 51
184 -1 12 -48 84 -54 102 -8 26 68 14 93 -38 80 -41 -10 -50 -5 -50 26 0 22
-17 45 -38 51 -21 7 -53 35 -71 62 -34 52 -89 66 -94 24 -3 -28 -5 -38 -27
-130 -17 -72 -40 -97 -60 -65 -7 11 -3 20 9 20 11 0 21 28 21 61 0 36 -8 56
-20 49 -11 -7 -20 -2 -20 10 0 12 -20 20 -45 16 -25 -3 -46 5 -47 19 -2 14 -4
43 -5 65 -2 22 -17 40 -34 40 -17 0 -26 8 -20 19 28 45 91 13 92 -48 0 -57 2
-59 29 -23 24 31 34 34 59 13 26 -22 31 -20 31 8 0 18 9 28 20 21 11 -7 15 1
8 17 -26 70 28 116 96 81 42 -22 54 -37 37 -47 -18 -11 -16 -19 8 -28 19 -7
28 -4 21 7 -7 11 10 20 39 20 32 0 51 11 51 30 0 17 -18 30 -40 30 -22 0 -40
-10 -40 -21 0 -12 -9 -16 -20 -9 -28 18 -25 42 11 79 29 28 29 31 0 31 -17 0
-31 -13 -31 -30 0 -39 -32 -39 -48 1 -6 18 -3 26 8 19 11 -7 20 10 20 38 0 39
-8 48 -35 40 -29 -9 -28 -6 5 23 40 34 40 34 0 19 -22 -8 -62 -14 -90 -13 -39
2 -44 -2 -20 -17 18 -12 21 -20 6 -20 -13 0 -29 9 -37 21 -7 11 -32 15 -56 9
-35 -10 -38 -9 -13 10 22 17 23 26 6 33 -13 5 -18 25 -11 43 11 31 9 31 -26 4
-38 -29 -38 -29 -1 15 34 40 34 45 5 45 -18 0 -34 11 -35 25 -2 14 -5 34 -7
45 -3 11 -6 36 -8 56 -2 20 -14 33 -28 31 -76 -16 -120 44 -106 147 7 56 5 95
-5 89 -9 -6 -17 1 -17 17 0 16 7 24 16 18 10 -6 17 -1 17 10 0 11 20 1 45 -24
31 -30 39 -51 25 -67 -15 -17 -24 -14 -34 10 -10 26 -13 23 -15 -12 -1 -32 10
-45 39 -45 26 0 40 -13 40 -39 0 -29 18 -43 70 -52 70 -14 105 -41 82 -64 -7
-7 -23 -2 -36 11 -29 29 -56 31 -56 4 0 -11 14 -20 31 -20 41 0 61 -60 27 -82
-23 -14 -23 -17 -1 -18 16 0 22 -12 16 -30 -9 -23 2 -28 52 -23 63 7 117 -12
171 -62 26 -24 51 -31 75 -20 18 8 52 -63 40 -83 -6 -10 3 -29 20 -43 25 -20
26 -29 5 -42 -20 -13 -20 -16 -1 -17 15 0 25 -27 25 -69 0 -73 42 -100 102
-64 39 23 145 0 128 -28 -7 -10 7 -19 31 -19 36 0 42 9 34 51 -7 38 -3 49 18
41 15 -6 27 -2 27 9 0 10 14 19 30 19 17 0 30 7 30 16 0 22 -77 25 -91 3 -6
-11 -29 -19 -50 -19 -22 0 -39 -9 -39 -20 0 -11 -18 -20 -40 -20 -41 0 -55 48
-20 70 11 7 20 4 20 -7 0 -28 75 -4 88 29 31 80 -71 109 -139 38 -56 -58 -70
-63 -100 -42 -38 28 -7 66 33 41 15 -10 18 0 9 28 -10 31 -5 43 18 43 17 0 31
7 31 17 0 21 122 4 154 -21 16 -13 38 -6 68 22 24 22 51 36 60 30 9 -5 38 4
65 22 43 28 50 28 75 -3 25 -30 23 -33 -17 -22 -25 6 -50 3 -57 -8 -18 -29 31
-76 68 -64 29 9 30 8 4 -11 -31 -22 -17 -29 45 -23 19 2 35 -6 35 -18 0 -11 9
-21 20 -21 36 0 21 33 -25 57 -42 22 -41 23 15 12 147 -29 126 -85 -27 -71
-26 2 -42 -4 -36 -14 11 -16 -13 -23 -90 -26 -31 -1 -31 -7 -5 -69 15 -37 28
-71 28 -76 0 -4 -49 -23 -110 -42 -60 -19 -110 -43 -110 -53 0 -10 -14 -18
-32 -18 -22 0 -28 11 -20 33 30 77 -77 159 -128 97 -30 -36 -120 -40 -120 -5
-1 17 -7 15 -20 -5 -17 -27 -19 -27 -20 0 0 20 -6 22 -15 8 -8 -12 -31 -20
-50 -17 -42 7 -21 -41 45 -101 44 -40 44 -40 80 5 22 27 59 45 91 45 43 0 49
-5 31 -27 -17 -21 -14 -38 13 -72 l37 -45 139 34 c76 19 148 42 158 52 25 24
51 23 51 -2 0 -11 -13 -20 -30 -20 -51 0 -33 -38 24 -53 35 -9 74 -2 113 21
41 23 66 27 80 13 41 -41 173 -18 173 30 0 42 32 52 87 27 67 -31 135 -9 87
28 -18 13 -46 57 -63 98 -48 115 -155 118 -183 3 -14 -55 -137 -152 -181 -143
-18 3 -45 41 -60 83 -23 67 -22 75 3 66 39 -15 62 27 28 49 -20 12 -12 17 28
18 47 0 55 -7 45 -38 -10 -31 -5 -37 27 -28 23 6 39 21 36 33 -2 13 16 21 41
18 25 -2 45 4 45 15 0 11 14 20 30 20 17 0 30 10 30 22 0 12 -13 17 -30 11
-16 -7 -30 -4 -30 6 0 10 -5 31 -12 48 -8 23 -1 27 32 19 33 -9 37 -16 17 -28
-22 -14 -21 -18 3 -19 17 -1 46 -5 65 -9 19 -3 48 11 63 33 34 49 92 4 92 -73
0 -26 9 -53 20 -60 11 -7 18 -50 15 -96 -5 -84 -5 -84 65 -84 64 0 70 5 64 53
-3 38 5 56 30 61 20 4 36 24 36 46 0 41 33 48 95 21 47 -20 95 21 95 81 0 32
-9 43 -28 36 -15 -6 -34 -2 -40 9 -8 13 -37 11 -80 -8 -72 -30 -91 -21 -119
58 -11 29 -25 33 -78 22 -108 -24 -125 -21 -131 26 -4 25 1 45 10 45 10 0 17
16 17 36 0 20 -14 35 -34 35 -27 0 -30 -6 -13 -26 16 -20 13 -33 -14 -53 -25
-18 -29 -30 -13 -40 33 -21 29 -39 -17 -68 -34 -20 -49 -19 -92 9 -43 29 -59
30 -93 9 -37 -23 -40 -22 -30 16 11 43 -16 60 -29 19 -8 -23 -68 3 -141 61
-51 41 -43 59 26 54 65 -5 111 32 88 69 -9 14 -1 20 21 16 58 -11 84 -70 54
-119 -25 -40 -24 -41 33 -29 34 8 65 4 72 -8 8 -12 -2 -21 -23 -21 -25 0 -19
-9 21 -30 32 -17 59 -30 61 -30 2 0 0 32 -4 70 -5 43 0 70 14 70 12 0 22 14
22 31 0 17 19 51 43 75 25 26 38 32 33 14 -5 -16 5 -41 22 -54 53 -41 65 -29
32 34 -17 33 -23 60 -13 60 10 0 24 -20 30 -45 11 -43 13 -43 39 -7 19 26 32
31 42 15 8 -13 4 -23 -9 -23 -13 0 -18 -13 -12 -30 8 -20 -5 -34 -38 -42 -48
-12 -66 -55 -32 -76 23 -14 106 47 93 68 -6 10 10 37 35 60 40 38 41 45 14 66
-51 39 -58 85 -17 111 45 28 50 74 8 90 -18 7 -25 25 -17 47 11 29 8 31 -14
11 -41 -38 -59 -30 -59 24 0 30 14 53 38 60 21 7 43 26 49 41 7 18 25 24 45
16 23 -8 31 -4 24 15 -5 17 -37 27 -82 26 -41 -1 -74 6 -74 16 0 9 11 17 25
17 52 0 74 94 27 117 -23 11 -30 21 -16 22 15 0 21 10 14 21 -7 12 -21 15 -31
9 -11 -6 -19 7 -19 29 0 22 -18 50 -40 62 -57 31 -54 -32 5 -98 l45 -50 -54
34 c-36 22 -52 25 -46 9 15 -39 -20 -78 -57 -64 -18 8 -33 26 -33 41 0 15 -10
28 -21 28 -48 0 -80 54 -48 80 16 14 29 35 29 47 0 14 -8 12 -18 -4 -23 -37
-46 3 -29 48 10 24 6 31 -10 21 -12 -8 -23 -26 -23 -41 0 -14 -22 -31 -49 -36
-43 -8 -47 -4 -29 28 10 20 28 37 39 37 10 0 19 19 19 42 0 29 9 39 30 31 53
-21 32 36 -29 76 -32 22 -53 47 -47 57 6 10 19 6 28 -9 14 -21 17 -19 18 9 0
41 -64 73 -75 38 -11 -32 -46 -31 -40 0 7 35 43 73 59 64 7 -5 19 0 25 11 17
27 71 3 71 -31 0 -15 13 -28 30 -28 32 0 32 -41 0 -64 -12 -9 -6 -25 15 -40
25 -18 33 -46 28 -92 -7 -57 0 -70 44 -87 112 -44 172 -34 119 19 -19 19 -16
24 11 24 20 0 31 -7 27 -15 -5 -8 -2 -33 7 -55 14 -34 16 -35 18 -5 0 21 17
35 40 35 21 0 45 10 53 23 9 15 5 18 -12 7 -17 -11 -21 -8 -12 7 8 13 28 23
45 23 20 0 27 11 20 30 -7 18 0 30 18 30 37 0 37 41 0 91 -28 37 -30 36 -31
-21 0 -42 -6 -52 -18 -33 -9 15 -13 44 -7 65 5 21 0 38 -13 38 -12 0 -22 -11
-22 -25 -1 -18 -5 -17 -18 3 -10 15 -28 21 -40 13 -12 -7 -23 -2 -23 13 -1 14
-10 6 -20 -19 -20 -50 -79 -42 -79 11 0 24 6 26 23 9 26 -26 108 60 88 93 -6
10 2 32 19 49 19 19 23 35 10 43 -11 7 -15 21 -9 31 6 11 2 19 -10 19 -11 0
-21 -13 -21 -29 0 -16 -10 -35 -23 -43 -15 -9 -18 -5 -7 12 11 17 8 21 -7 12
-16 -10 -16 -23 0 -50 17 -26 16 -45 -2 -74 -19 -30 -22 -31 -13 -4 5 19 2 40
-9 47 -10 6 -20 -9 -21 -35 -2 -34 -5 -37 -12 -11 -5 20 -17 30 -28 24 -10 -6
-18 6 -18 28 0 22 11 44 25 50 18 8 14 19 -13 41 -33 27 -34 35 -10 66 22 29
18 28 -22 -4 -28 -22 -57 -49 -65 -60 -9 -13 -15 -13 -15 0 0 11 -12 -2 -25
-29 -35 -68 -132 -92 -152 -38 -8 22 -24 40 -34 41 -47 2 -94 55 -84 94 9 33
-5 48 -67 75 -80 36 -95 62 -55 102 32 32 6 85 -42 85 -26 0 -36 10 -29 28 7
18 -7 34 -35 43 -60 19 -92 53 -81 87 5 16 0 22 -13 14 -12 -8 -18 -49 -13
-96 l8 -82 -54 63 c-33 39 -75 65 -108 68 -42 3 -49 9 -32 30 16 19 29 20 43
6 12 -12 34 -21 51 -21 22 0 20 7 -9 30 -27 21 -30 29 -9 25 17 -3 40 -22 52
-42 18 -32 24 -33 33 -8 7 18 -8 48 -37 73 -26 23 -47 58 -46 77 1 23 5 26 12
9 10 -25 106 -130 106 -115 0 3 34 -5 75 -19 83 -29 109 -23 92 21 -15 38 21
37 53 -1 14 -16 18 -30 10 -30 -8 0 -5 -12 7 -26 13 -16 15 -35 5 -45 -35 -37
14 -117 52 -86 24 19 29 19 19 2 -9 -15 -3 -30 16 -37 17 -7 31 -33 31 -59 0
-28 18 -57 42 -70 27 -14 38 -36 32 -59 -8 -30 2 -37 53 -36 35 0 89 -7 121
-15 49 -12 56 -10 46 17 -23 60 42 85 87 33 31 -35 34 -50 14 -62 -14 -9 -16
-17 -4 -17 12 0 32 11 46 25 20 20 23 18 12 -10 -7 -19 -4 -35 7 -35 33 0 44
58 14 75 -31 17 40 93 92 97 15 1 50 9 76 17 42 14 46 11 31 -22 -43 -97 -24
-231 36 -253 44 -16 46 18 3 42 -26 15 -21 22 29 43 54 22 58 30 42 74 -24 62
-24 72 -1 58 9 -6 29 3 43 20 39 47 -5 122 -78 133 -34 5 -56 1 -51 -8 6 -9
-3 -16 -20 -16 -40 0 -63 41 -34 59 17 10 18 29 2 70 -21 56 -21 56 -65 19
-36 -31 -39 -32 -17 -3 14 19 22 47 16 62 -21 54 -194 -12 -194 -73 0 -12 6
-15 12 -8 7 7 25 0 40 -16 38 -37 36 -61 -2 -30 -24 20 -30 20 -30 0 0 -13
-12 -20 -27 -14 -14 6 -26 -3 -26 -18 0 -16 9 -26 21 -21 36 13 92 -26 92 -65
0 -50 -79 -123 -82 -75 -6 76 -11 83 -48 76 -114 -19 -140 -13 -146 32 -8 51
-25 56 -61 20 -26 -26 -71 16 -51 48 7 12 -93 42 -155 46 -41 3 -36 31 5 32
l48 0 -47 40 c-26 21 -40 40 -30 40 9 1 37 6 62 10 25 5 45 2 45 -7 0 -19 96
-17 110 3 5 7 4 8 -3 3 -8 -6 -33 2 -56 18 -24 15 -66 25 -96 22 -48 -6 -51
-2 -34 43 23 60 -10 78 -89 48 -61 -24 -100 -11 -78 25 7 13 -2 11 -22 -5 -32
-26 -40 -24 -73 20 -36 48 -297 84 -267 36 6 -9 -4 -17 -21 -17 -41 0 -40 -52
1 -68 23 -9 29 -4 21 18 -7 18 0 30 18 30 16 0 29 9 29 20 0 11 10 20 21 20
12 0 15 -10 7 -23 -8 -14 -5 -18 8 -10 35 22 47 -21 14 -54 -27 -28 -27 -33 5
-51 19 -12 24 -21 11 -21 -13 -1 -29 8 -36 19 -21 33 -90 24 -77 -10 6 -16 19
-25 29 -19 10 6 13 -1 7 -17 -9 -22 -68 -30 -109 -13 -5 2 -18 2 -27 1 -10 -2
-12 11 -6 28 8 21 5 27 -11 18 -15 -10 -19 -3 -10 19 10 26 3 32 -32 25 -34
-6 -45 2 -45 30 0 30 14 38 65 38 90 0 59 88 -44 127 -27 11 -31 20 -14 37 16
16 36 13 74 -12 50 -33 52 -33 46 2 -3 20 5 34 19 31 14 -3 25 4 25 15 0 20
-32 29 -70 20 -107 -25 -140 -10 -146 68 -6 69 -2 76 33 67 25 -6 45 1 51 18
7 17 3 24 -9 16 -22 -13 -79 25 -79 53 0 10 21 18 46 18 46 0 94 33 94 65 0
10 -8 12 -18 6 -9 -6 -22 7 -28 29 -8 31 -27 40 -83 40 -67 0 -71 -4 -59 -50z
m-204 -280 c28 -27 64 -50 81 -50 51 0 35 -37 -30 -70 -33 -18 -108 -68 -165
-111 -57 -44 -124 -85 -148 -91 -25 -7 -50 -29 -57 -50 -6 -21 -35 -65 -62
-98 -55 -65 -51 -126 8 -117 19 3 46 -1 59 -9 13 -8 29 -6 35 5 7 10 26 14 42
8 16 -6 43 0 60 14 26 21 30 21 25 -3 -4 -19 13 -28 54 -30 33 0 74 -6 90 -13
71 -27 122 -31 114 -8 -5 12 -23 22 -41 20 -18 -1 -27 7 -20 17 7 11 1 28 -14
36 -20 13 -18 23 8 50 43 43 42 46 -17 35 -28 -6 -50 0 -50 12 0 12 15 16 35
9 31 -12 32 -9 8 20 -24 29 -23 34 5 34 17 0 32 -9 32 -20 0 -11 14 -20 31
-20 16 0 35 -13 42 -30 18 -48 53 -35 40 15 -9 38 -7 40 13 14 13 -17 40 -38
60 -45 39 -15 97 -133 79 -161 -6 -10 -22 10 -37 44 -14 35 -35 63 -45 63 -11
0 -32 4 -46 10 -41 15 -80 -19 -66 -57 17 -43 48 -42 81 2 18 24 27 27 27 8 1
-15 -19 -44 -44 -65 -33 -28 -35 -35 -10 -26 38 13 41 8 23 -41 -12 -30 -16
-30 -49 0 -23 20 -52 28 -78 19 -62 -19 -50 -44 29 -59 39 -7 71 -24 72 -37 1
-16 4 -16 12 2 5 15 32 35 59 45 27 11 44 28 37 39 -7 11 6 20 29 20 22 0 41
10 41 21 0 12 9 16 20 9 11 -7 20 -21 20 -32 0 -11 -9 -15 -20 -8 -11 7 -20 2
-20 -10 0 -12 -11 -16 -25 -8 -20 11 -20 8 -1 -12 36 -39 89 11 74 69 -7 28 2
58 22 78 22 22 24 33 8 33 -14 0 -19 6 -11 13 7 7 30 -2 50 -21 34 -30 39 -30
50 -3 14 36 70 40 113 9 25 -18 25 -20 -5 -11 -24 8 -35 1 -35 -21 0 -29 -4
-28 -29 5 -17 22 -30 29 -30 16 -1 -31 48 -69 97 -72 22 -2 36 -7 31 -12 -4
-5 7 -22 26 -38 23 -18 25 -24 5 -15 -16 7 -13 -1 9 -19 22 -17 76 -31 126
-31 79 0 86 -4 75 -40 -11 -34 -3 -40 54 -42 63 -2 63 -3 -20 -22 -72 -16 -84
-25 -74 -57 8 -23 3 -39 -10 -39 -12 0 -16 10 -8 23 8 13 3 19 -11 14 -42 -14
-13 -47 42 -47 41 0 49 -6 33 -25 -12 -14 -15 -25 -8 -25 7 0 4 -18 -8 -40
-15 -27 -15 -40 -1 -40 12 0 21 14 21 32 0 20 11 28 28 21 26 -10 62 37 55 71
-1 8 13 9 31 2 20 -8 24 -17 11 -21 -12 -4 -18 -21 -11 -38 9 -25 15 -25 28
-4 14 21 17 21 18 1 0 -14 -13 -30 -30 -37 -16 -6 -26 -17 -21 -25 4 -8 -9
-15 -31 -17 -21 -1 -34 6 -27 16 6 11 2 19 -10 19 -40 0 -21 -41 29 -64 28
-12 50 -30 50 -39 0 -9 9 -17 19 -17 11 0 15 13 9 28 -6 15 -2 34 10 41 24 15
67 -57 46 -80 -8 -8 -4 -10 8 -3 13 7 40 -6 60 -30 34 -39 35 -42 3 -30 -25 9
-35 3 -35 -24 0 -20 -13 -48 -30 -62 -39 -32 -38 -60 0 -60 17 0 39 -21 49
-47 11 -31 40 -52 79 -60 125 -25 72 -67 -80 -62 -162 5 -196 25 -163 96 12
27 17 68 12 90 -7 25 2 55 22 75 18 18 29 45 23 59 -5 15 1 31 14 36 13 5 5
11 -19 11 -24 1 -48 13 -53 27 -5 14 -14 20 -22 13 -21 -19 10 -79 33 -65 12
8 15 4 7 -10 -8 -13 -28 -23 -44 -23 -17 0 -25 -9 -18 -20 7 -11 -6 -20 -29
-20 -27 0 -41 13 -41 39 0 21 -16 48 -35 59 -19 12 -24 21 -10 21 14 1 25 15
25 31 0 17 11 30 23 30 13 0 18 5 12 12 -6 6 -35 -4 -63 -23 -34 -22 -52 -25
-52 -10 0 13 -11 17 -25 9 -15 -8 -18 -7 -8 4 9 10 25 18 35 18 10 0 16 9 13
20 -3 11 -14 18 -25 15 -11 -3 -3 8 18 24 21 16 48 24 60 17 12 -6 2 7 -22 31
-50 49 -126 57 -126 14 0 -19 -31 -33 -90 -42 -50 -8 -95 -20 -100 -29 -20
-32 -110 5 -113 47 -2 24 -5 79 -8 123 -3 44 -6 91 -7 105 -1 14 -12 25 -23
25 -12 0 -15 -10 -8 -22 8 -12 2 -30 -13 -40 -20 -13 -21 -17 -3 -18 14 0 25
-13 25 -30 0 -16 -11 -31 -25 -32 -20 -1 -20 -3 0 -11 14 -6 25 -24 25 -40 0
-16 -10 -23 -21 -16 -44 27 -119 24 -119 -5 0 -16 10 -22 23 -14 15 9 18 5 8
-10 -16 -26 -95 11 -92 43 0 8 4 13 8 10 4 -3 21 7 39 22 18 14 41 21 51 15
10 -6 28 0 40 15 18 21 4 25 -70 21 -51 -3 -101 -17 -110 -32 -15 -23 -25 -9
-20 28 2 8 -11 9 -27 3 -19 -7 -30 1 -30 22 0 21 9 28 25 18 15 -8 12 1 -5 23
-27 34 -27 36 6 24 23 -9 31 -6 23 8 -7 11 -25 16 -40 10 -15 -6 -33 -2 -40 9
-15 25 -123 25 -139 -1 -7 -11 -2 -20 10 -20 14 0 20 -26 17 -63 -4 -36 3 -67
16 -71 15 -5 20 7 13 33 -8 32 -1 41 32 41 41 0 61 38 22 43 -11 1 -28 3 -38
5 -38 5 -47 32 -10 32 65 -1 94 -32 84 -88 -6 -29 -1 -52 11 -52 11 0 5 -12
-15 -26 -32 -23 -28 -26 31 -19 50 6 78 -3 106 -33 20 -23 27 -42 14 -42 -13
0 -30 0 -38 0 -8 0 -15 8 -15 18 0 10 -7 24 -15 30 -8 7 -11 6 -5 -1 5 -7 -1
-26 -14 -42 -29 -34 21 -76 53 -44 38 38 51 18 20 -30 -18 -27 -26 -60 -18
-73 10 -15 7 -19 -8 -10 -13 8 -23 6 -23 -5 0 -11 11 -24 25 -28 14 -5 -9 -13
-51 -18 -58 -7 -73 -3 -65 19 6 15 11 36 11 46 0 10 16 19 35 20 32 2 32 3 1
12 -22 5 -30 21 -22 42 9 25 6 28 -12 13 -12 -12 -27 -44 -32 -70 -5 -27 -14
-72 -20 -99 -9 -39 1 -57 44 -85 41 -25 47 -34 21 -34 -19 -1 -35 8 -35 19 0
11 -11 20 -25 19 -14 0 0 -23 31 -50 31 -27 67 -44 79 -36 12 7 15 4 8 -8 -7
-12 -2 -26 12 -31 20 -7 20 -14 0 -35 -21 -22 -25 -21 -25 7 0 21 -16 34 -40
34 -22 0 -40 9 -40 19 0 11 -12 15 -26 10 -33 -13 -33 -89 0 -89 14 0 26 9 26
20 0 11 9 20 20 20 11 0 20 -13 20 -29 0 -21 23 -27 99 -22 101 7 113 -10 55
-84 -12 -17 -11 -25 4 -25 12 0 22 -13 22 -30 0 -16 -10 -30 -21 -30 -12 0
-16 9 -9 20 7 11 -6 20 -29 20 -26 0 -49 19 -61 50 -10 27 -33 50 -51 50 -17
0 -26 -9 -19 -20 7 -11 3 -20 -9 -20 -11 0 -21 -10 -21 -21 0 -12 11 -16 25
-8 14 7 4 -5 -21 -25 -100 -82 113 -187 243 -121 26 13 34 12 25 -2 -18 -29
133 -24 151 4 9 13 25 12 45 -6 35 -29 141 -12 122 20 -14 22 -6 24 40 6 23
-9 26 -17 10 -27 -16 -10 -11 -18 15 -24 31 -9 37 -2 29 37 -5 25 -17 42 -26
36 -10 -6 -18 -2 -18 10 0 11 10 21 23 21 13 0 19 5 13 11 -6 5 -34 1 -63 -10
-35 -13 -56 -13 -65 2 -9 15 -17 15 -26 0 -8 -13 -24 -14 -43 -2 -20 13 -21
18 -4 19 17 0 22 18 17 50 -7 35 0 50 21 50 16 0 24 8 18 18 -20 33 -87 -1
-100 -51 -7 -28 -23 -46 -37 -41 -13 5 -40 0 -59 -10 -22 -11 -49 -10 -70 3
-19 11 -24 20 -10 20 59 2 4 214 -63 241 -42 17 -42 17 3 19 54 1 52 107 -3
147 -24 18 -30 41 -20 89 17 86 90 108 155 48 25 -24 70 -45 99 -47 30 -3 54
-12 54 -20 0 -9 17 -16 39 -16 21 0 44 -9 51 -20 7 -11 35 -15 61 -8 28 7 63
2 79 -12 20 -17 30 -18 30 -3 0 12 14 17 30 10 17 -6 30 -29 30 -51 0 -29 9
-37 33 -28 28 11 29 8 6 -19 -25 -30 -29 -30 -52 2 -29 39 -87 0 -87 -58 0
-19 -13 -26 -40 -19 -28 7 -40 1 -40 -21 0 -17 -20 -50 -45 -73 -46 -43 -27
-79 40 -80 17 0 22 -16 13 -50 -10 -41 -5 -50 30 -50 23 0 42 -11 42 -25 1
-19 5 -18 18 2 9 14 20 25 24 23 20 -9 118 26 118 42 0 10 -8 18 -19 18 -10 0
-21 13 -25 30 -5 26 -12 26 -63 0 -74 -39 -105 -38 -72 1 21 26 21 30 -3 25
-15 -3 -25 6 -22 21 3 17 -6 24 -23 17 -23 -9 -24 -2 -5 37 18 39 33 45 87 37
56 -9 65 -5 65 32 0 23 -9 37 -20 30 -11 -7 -20 -4 -20 6 0 10 32 16 71 14 86
-6 168 -79 130 -117 -13 -13 -22 -14 -19 -3 15 67 -79 123 -114 67 -9 -14 -5
-18 9 -9 13 8 23 6 23 -5 0 -11 -10 -23 -22 -27 -13 -4 -2 -45 30 -105 29 -53
52 -82 52 -65 0 24 19 15 68 -32 59 -55 64 -68 40 -95 -23 -27 -21 -35 13 -59
21 -16 39 -43 39 -59 -1 -27 -3 -28 -22 -1 -17 24 -20 25 -13 1 11 -40 55 -51
55 -13 0 53 87 28 118 -34 21 -42 22 -67 6 -103 -18 -41 -15 -52 22 -76 64
-41 119 -59 103 -34 -7 12 11 44 40 73 40 40 51 69 46 124 -4 58 2 71 30 69
19 -1 35 10 35 25 0 39 -67 35 -146 -10 -97 -54 -178 -3 -107 68 23 23 36 23
82 -1 84 -44 129 7 56 63 -32 24 -30 27 20 23 34 -2 52 -13 47 -28 -5 -13 15
-29 44 -37 65 -16 112 -52 89 -68 -33 -24 -85 -122 -85 -161 0 -23 -10 -41
-21 -41 -57 0 -84 -59 -51 -110 43 -65 40 -104 -9 -131 -52 -28 -154 41 -126
85 5 9 -5 16 -23 16 -18 0 -27 -9 -20 -20 7 -11 -1 -14 -19 -8 -17 7 -26 20
-20 30 6 10 2 18 -10 18 -11 0 -19 11 -16 25 3 14 -6 23 -20 20 -14 -3 -25 9
-25 25 0 27 -24 39 -65 32 -8 -1 -15 9 -15 23 -1 17 -7 15 -19 -5 -15 -23 -19
-20 -16 14 2 24 10 39 19 33 9 -5 16 5 16 23 0 24 -11 29 -40 20 -30 -10 -37
-5 -28 19 8 20 1 31 -21 31 -20 0 -28 -10 -21 -25 7 -14 1 -11 -14 7 -14 18
-46 38 -70 46 -24 8 -50 32 -57 54 -7 24 -24 36 -40 31 -14 -6 -31 0 -37 13
-6 13 -9 6 -7 -16 2 -22 -3 -51 -11 -64 -10 -17 -2 -21 28 -16 59 12 118 -23
118 -71 0 -21 10 -39 21 -39 13 0 17 19 9 45 -11 42 -10 42 12 7 20 -33 16
-45 -24 -78 l-48 -39 50 14 c38 10 43 9 20 -7 -25 -18 -22 -21 15 -22 30 0 45
-12 45 -35 0 -20 -7 -26 -15 -15 -8 12 -40 32 -70 45 -30 13 -55 33 -55 45 0
11 -13 20 -30 20 -16 0 -30 -10 -30 -21 0 -12 -9 -16 -19 -10 -32 20 -1 67 52
80 50 13 35 71 -18 71 -12 0 -11 -11 3 -28 18 -21 14 -29 -18 -38 -25 -6 -40
0 -40 16 0 26 -118 79 -136 61 -18 -19 16 -71 47 -71 17 0 26 9 19 20 -21 34
14 22 42 -15 32 -41 36 -72 8 -55 -12 7 -14 -2 -6 -22 10 -28 5 -32 -26 -21
-36 12 -36 11 2 -19 39 -30 39 -31 -10 -24 -28 4 -48 18 -45 33 4 14 -3 21
-14 14 -10 -7 -28 6 -40 27 -26 49 -27 68 -1 52 11 -7 20 -3 20 9 0 27 -34 27
-51 0 -15 -25 71 -159 102 -159 11 0 22 -18 24 -40 1 -22 -6 -40 -17 -40 -11
0 -16 8 -10 17 6 9 -18 38 -54 64 -35 25 -52 32 -37 14 29 -36 14 -115 -22
-115 -16 0 -16 7 1 24 37 37 28 60 -14 37 -28 -15 -44 -13 -62 9 -14 16 -34
24 -45 17 -12 -8 -15 -3 -7 10 11 17 25 17 56 1 25 -13 36 -14 28 -2 -7 11 -5
24 3 29 8 5 5 6 -8 3 -50 -12 -45 21 8 44 30 14 41 25 24 26 -16 1 -51 -12
-76 -30 -61 -43 -77 -22 -25 30 23 23 42 35 42 27 1 -18 39 39 40 58 0 7 -20
18 -45 25 -34 9 -38 16 -18 29 20 13 17 20 -15 28 -47 13 -50 7 -22 -44 16
-31 13 -35 -20 -27 -22 6 -35 19 -29 28 6 10 -3 18 -20 18 -17 0 -31 9 -31 20
0 11 -9 20 -20 20 -12 0 -6 -23 12 -50 26 -40 27 -50 5 -50 -15 0 -47 -6 -71
-12 -38 -10 -43 -5 -35 36 6 36 -1 47 -30 47 -21 0 -33 -8 -26 -19 7 -11 -4
-13 -27 -4 -30 11 -33 9 -13 -11 14 -14 25 -40 25 -59 0 -26 15 -33 65 -29 82
7 175 -72 175 -149 0 -28 9 -63 20 -76 15 -17 13 -19 -4 -4 -32 27 -56 25 -56
-3 0 -13 6 -18 13 -11 7 8 25 4 38 -7 30 -25 58 8 42 50 -6 16 2 25 19 23 39
-6 78 -48 61 -66 -9 -8 -25 -2 -36 15 -17 24 -19 23 -10 -6 7 -19 4 -35 -5
-35 -10 0 -24 -15 -31 -34 -12 -31 -10 -31 23 -2 34 30 88 9 86 -34 -1 -44 3
-52 23 -46 30 10 44 98 14 91 -12 -3 -26 6 -31 19 -6 16 7 21 36 16 25 -5 57
1 72 13 29 24 114 -33 95 -64 -5 -9 2 -20 16 -26 14 -5 -3 -11 -37 -11 -40 -1
-61 -12 -61 -32 0 -18 15 -27 41 -22 23 3 31 2 17 -2 -14 -5 -25 -17 -25 -27
0 -10 -13 -13 -30 -6 -16 6 -30 3 -30 -8 0 -23 -79 -20 -120 4 -26 16 -26 14
-3 -15 15 -18 34 -30 41 -25 8 5 27 0 43 -10 29 -19 2 -30 -49 -20 -10 2 -27
-9 -37 -23 -14 -19 -16 -17 -8 9 7 19 3 35 -8 35 -10 0 -19 14 -19 30 0 17 -8
30 -18 30 -9 0 -22 19 -28 42 -6 23 -21 36 -33 29 -11 -7 -21 -4 -21 7 0 11
-18 16 -40 12 -53 -10 -51 7 5 31 51 23 -9 14 -66 -9 -21 -9 -31 -1 -33 26 -2
22 12 44 30 48 24 7 21 10 -11 12 -43 2 -56 30 -46 99 3 22 -13 25 -70 14
l-75 -14 13 63 c12 58 10 60 -20 29 -41 -40 -71 -3 -57 70 6 33 1 42 -20 34
-16 -6 -34 -3 -41 8 -10 17 17 28 56 21 8 -1 15 12 15 28 0 17 -9 30 -20 30
-11 0 -20 -9 -20 -20 0 -12 -18 -12 -48 -1 -26 10 -55 12 -63 5 -8 -8 -5 4 6
26 11 22 23 52 28 66 5 19 20 14 52 -16 50 -47 63 -20 14 29 -29 28 -29 31 0
31 26 0 28 8 11 40 -18 34 -15 40 23 40 56 0 43 11 -33 28 -44 10 -52 8 -30
-7 25 -17 24 -21 -10 -22 -22 -1 -29 -7 -15 -12 38 -16 30 -50 -10 -43 -26 4
-35 -7 -35 -44 0 -58 -64 -71 -104 -21 -14 17 -25 23 -25 13 -1 -10 -19 -2
-41 18 -22 20 -40 28 -40 18 0 -10 -23 -19 -51 -21 -29 -2 -62 -17 -75 -35
-38 -52 -167 -60 -180 -12 -6 22 -31 48 -57 59 -42 16 -39 19 29 20 57 1 79
-8 90 -38 10 -29 22 -34 44 -20 27 16 27 18 0 19 -23 1 -22 6 6 22 26 15 30
28 15 46 -14 18 -12 36 6 62 19 25 31 29 41 13 8 -13 5 -23 -7 -23 -11 0 -21
-9 -21 -21 0 -30 62 -48 78 -23 8 14 23 15 43 3 24 -15 23 -18 -6 -19 -19 0
-35 -8 -35 -18 0 -10 32 -8 73 4 39 12 62 26 51 29 -12 4 -16 21 -10 38 7 19
-10 49 -44 79 -43 37 -48 48 -22 48 19 0 29 9 23 19 -7 11 -28 14 -47 8 -29
-9 -29 -8 -4 11 20 14 22 21 5 22 -14 0 -25 9 -25 20 0 11 20 10 50 -4 28 -12
50 -30 50 -39 0 -9 11 -17 23 -17 13 0 3 23 -23 50 -26 28 -60 50 -76 50 -18
0 -24 12 -16 32 7 17 12 50 12 72 0 33 9 38 50 28 30 -8 50 -4 50 9 0 12 -9
16 -20 9 -11 -7 -20 -3 -20 9 0 11 20 21 45 21 32 1 37 5 18 18 -20 12 -16 19
16 28 32 8 42 2 40 -23 -7 -64 1 -75 56 -74 39 1 53 -8 47 -29 -4 -16 -7 -41
-8 -55 0 -14 -10 -25 -22 -25 -12 0 -9 -9 7 -19 40 -25 90 15 61 49 -11 14
-15 40 -8 57 7 18 2 33 -10 33 -12 0 -22 14 -22 30 0 17 -10 30 -21 30 -12 0
-16 -9 -9 -20 7 -11 0 -20 -15 -20 -14 0 -26 18 -26 40 0 22 7 40 15 40 9 0
16 14 16 32 0 21 11 28 31 20 18 -6 26 -3 19 8 -7 11 -3 20 9 20 11 0 21 -14
21 -31 0 -19 9 -26 23 -17 14 9 18 5 9 -9 -8 -13 -6 -23 5 -23 11 0 24 11 30
25 5 14 11 4 11 -22 2 -46 1 -47 -49 -14 -27 18 -60 27 -72 19 -15 -9 -11 -20
11 -32 18 -10 27 -28 19 -40 -8 -14 -4 -16 11 -7 15 9 37 0 54 -22 22 -28 28
-30 26 -7 -4 49 25 120 49 121 13 0 1 13 -27 28 -27 15 -57 23 -66 18 -8 -6
-9 14 -2 44 10 40 7 51 -10 40 -13 -8 -36 -4 -51 8 -19 16 -31 16 -40 2 -8
-12 -4 -21 8 -21 37 0 23 -35 -19 -46 -22 -6 -35 -3 -30 6 6 10 2 22 -8 29
-11 7 -16 -14 -12 -49 8 -56 4 -60 -56 -60 -49 1 -57 5 -34 20 26 17 26 19 -1
20 -17 0 -42 -11 -56 -25 -20 -20 -22 -17 -11 15 14 38 13 39 -25 5 -22 -19
-46 -29 -54 -22 -7 8 -13 3 -13 -10 0 -13 25 -34 55 -46 55 -22 54 -22 -59
-64 -77 -28 -113 -52 -110 -73 8 -50 35 -81 58 -67 14 8 16 4 7 -11 -11 -18
-22 -18 -48 2 -70 55 -83 73 -63 86 43 26 20 70 -37 70 -37 0 -56 10 -56 30 0
17 11 30 26 30 19 0 21 13 8 47 -17 44 -13 46 81 50 61 3 98 -3 98 -17 0 -12
9 -17 21 -9 13 8 5 26 -20 48 -28 24 -37 48 -28 72 11 28 7 33 -21 23 -27 -11
-33 -5 -28 30 7 52 42 67 79 32 62 -59 136 -85 162 -57 20 22 19 24 -3 11 -18
-10 -23 -8 -15 5 7 11 -2 33 -21 48 -29 24 -32 22 -21 -19 10 -39 7 -42 -17
-22 -28 23 -13 62 38 100 9 7 19 25 21 40 2 15 12 40 21 55 11 17 7 34 -10 45
-32 21 -125 4 -135 -23 -8 -24 -63 -25 -63 -1 0 10 20 23 45 30 89 23 102 43
63 89 -24 28 -50 38 -80 31 -56 -14 -80 23 -33 52 25 16 28 25 10 33 -61 26
-20 52 67 42 81 -9 89 -7 63 19 -26 26 -26 37 -1 87 41 82 62 89 127 41 69
-50 82 -52 65 -10 -10 28 -6 29 30 10 58 -31 69 -28 54 18 -7 23 -4 40 9 40
13 0 7 22 -13 53 -66 101 93 186 182 97z m240 -292 c-4 -32 2 -58 14 -58 11 0
15 -9 8 -20 -7 -11 10 -20 39 -20 28 0 51 -11 51 -25 0 -35 -97 -28 -174 12
-61 31 -64 31 -52 -1 11 -28 3 -27 -48 9 -33 24 -66 39 -72 32 -6 -6 -32 4
-58 23 l-46 34 54 -12 c32 -7 59 -3 68 12 10 16 19 12 28 -13 8 -23 36 -38 77
-41 57 -5 60 -2 30 20 -20 14 -47 21 -61 16 -14 -6 -26 0 -26 12 0 12 11 22
23 22 13 0 18 6 11 13 -27 27 27 60 83 52 50 -8 56 -16 51 -67z m460 39 c-6
-9 3 -17 18 -17 49 0 85 -57 54 -86 -21 -19 -23 -17 -14 10 7 19 3 40 -7 47
-11 7 -19 5 -17 -5 7 -42 -6 -42 -51 -3 -52 45 -53 70 -3 70 17 0 26 -7 20
-16z m-903 -212 c-14 -4 -25 -22 -25 -38 0 -39 -48 -24 -56 17 -4 22 10 31 50
31 31 -1 45 -5 31 -10z m185 -20 c43 -32 33 -108 -11 -85 -22 12 -49 16 -59
10 -29 -18 -25 26 5 60 29 33 38 35 65 15z m1510 -636 c0 -5 -13 -9 -30 -9
-16 0 -30 13 -30 28 0 15 -14 33 -31 40 -17 6 -26 21 -18 33 11 18 109 -64
109 -92z m74 -158 c-50 -52 -57 -50 -65 15 -4 40 3 45 52 38 l56 -8 -43 -45z
m-634 -221 c1 11 11 4 22 -17 12 -20 16 -41 10 -48 -7 -6 -12 -1 -12 12 0 13
-10 23 -23 23 -25 0 -76 59 -76 90 0 11 17 -2 39 -30 22 -27 40 -41 40 -30z
m-1567 -46 c-54 -54 -153 -50 -153 7 0 25 8 26 45 7 37 -19 41 -18 20 4 -20
21 -15 30 30 49 86 37 121 -4 58 -67z m1717 -84 c7 -12 21 -15 31 -9 11 6 19
-12 19 -40 0 -31 -11 -51 -29 -51 -17 0 -25 12 -19 27 6 16 -4 43 -22 60 -18
18 -24 33 -13 33 12 0 26 -9 33 -20z m-1498 -75 c-10 -29 -7 -29 18 4 16 21
30 28 30 15 0 -13 16 -25 35 -26 19 0 24 -6 11 -11 -13 -5 -19 -21 -14 -36 6
-14 -8 -30 -31 -36 -45 -12 -76 15 -36 32 15 6 11 10 -10 11 -19 1 -35 13 -35
25 0 13 -7 17 -15 9 -26 -26 -17 -61 25 -96 27 -24 31 -35 13 -35 -23 -1 -23
-7 -3 -31 38 -46 55 -36 46 25 l-9 55 44 -50 c24 -27 49 -50 56 -50 7 0 11 -7
8 -15 -3 -8 9 -15 26 -15 17 0 26 9 19 20 -7 11 -3 20 9 20 32 0 25 -40 -9
-53 -16 -6 -25 -19 -19 -29 17 -27 -16 -20 -60 13 -49 37 -105 40 -76 4 11
-14 17 -41 14 -60 -3 -19 3 -30 13 -24 10 7 13 20 7 30 -17 29 68 10 96 -20
20 -22 18 -24 -14 -13 -28 10 -24 0 18 -39 l57 -52 -42 -41 c-47 -48 -104 -36
-104 21 0 21 -18 60 -39 88 -22 27 -34 56 -26 63 8 8 -1 8 -19 1 -26 -9 -31
-3 -22 29 6 24 1 42 -12 42 -12 0 -22 10 -22 21 0 12 10 15 23 7 13 -8 19 -6
13 4 -5 10 -17 36 -25 58 -15 40 -15 40 -32 0 -16 -39 -17 -39 -30 5 -8 25
-22 45 -31 45 -10 0 -18 8 -18 18 0 10 20 13 45 7 25 -6 38 -4 30 6 -8 9 10
32 40 52 68 45 72 46 57 2z m-387 -81 c-7 -35 50 -53 83 -26 21 18 30 15 40
-10 10 -26 18 -28 42 -8 25 21 30 18 30 -18 0 -45 -29 -56 -51 -20 -8 13 -40
17 -81 9 -59 -11 -71 -6 -91 37 -12 28 -37 54 -55 60 -18 5 -5 8 28 6 37 -3
58 -14 55 -30z m579 -53 c21 12 21 9 2 -12 -30 -32 -137 7 -115 42 8 14 26 10
50 -12 21 -19 48 -27 63 -18z m1816 -118 c-1 -58 -35 -79 -59 -35 -12 23 -18
51 -11 62 15 24 70 3 70 -27z m-571 -114 c-5 -9 -1 -22 11 -29 11 -7 20 6 20
30 0 24 9 37 20 30 12 -7 15 -22 8 -34 -7 -11 -1 -28 14 -37 15 -9 19 -24 10
-33 -10 -9 -21 -5 -26 8 -6 17 -23 19 -60 4 -28 -10 -56 -14 -62 -9 -6 6 1 11
16 11 15 0 21 6 14 13 -8 7 -4 25 9 40 16 20 16 27 -1 27 -12 0 -22 10 -22 22
0 16 9 15 30 -2 16 -13 25 -32 19 -41z m-165 21 c14 0 14 -9 -1 -26 -16 -20
-11 -35 21 -63 33 -28 40 -29 30 -5 -6 17 1 36 18 42 21 8 26 -1 20 -39 -5
-27 -8 -49 -6 -49 3 0 33 8 69 19 41 11 65 11 65 -1 0 -12 15 -11 39 1 49 26
61 26 61 0 0 -12 -9 -16 -20 -9 -11 7 -20 -7 -20 -32 0 -42 -2 -42 -37 -11
-20 18 -42 27 -50 20 -24 -25 -14 -46 17 -34 17 6 30 1 30 -11 0 -12 -7 -21
-15 -20 -53 9 -75 -3 -45 -23 27 -18 27 -20 0 -16 -16 3 -52 -6 -80 -19 -50
-25 -50 -25 -6 7 54 40 25 110 -38 94 -35 -9 -35 -11 -1 -38 33 -26 33 -26 -2
-14 -32 11 -36 6 -25 -35 12 -43 11 -43 -18 7 -17 30 -42 55 -56 55 -31 0
-140 100 -126 115 6 6 24 0 39 -12 21 -18 34 -16 55 10 25 30 24 33 -8 21 -20
-7 -32 -7 -28 1 4 8 14 32 21 52 8 24 25 33 45 25 17 -7 41 -12 52 -12z
m-1197 -184 c6 -22 19 -34 31 -27 55 34 126 -13 115 -77 -6 -34 -6 -51 0 -37
22 54 88 29 67 -25 -11 -29 -12 -50 -1 -50 10 0 24 18 31 40 7 23 23 35 35 27
14 -9 17 -2 9 20 -18 46 11 42 41 -6 20 -32 19 -38 -3 -29 -15 6 -35 0 -43
-14 -9 -14 -7 -19 6 -11 20 12 58 -20 65 -55 2 -10 -9 -25 -23 -34 -15 -9 -28
-26 -29 -37 -2 -12 -4 -30 -5 -41 -4 -30 -55 -24 -83 10 -16 19 -42 26 -68 19
-30 -8 -34 -6 -15 7 44 30 9 104 -48 104 -27 0 -49 -7 -49 -15 0 -8 -6 -34
-12 -57 -9 -34 4 -49 63 -77 56 -27 67 -40 47 -53 -43 -27 -78 -21 -78 12 0
17 -17 30 -38 30 -68 0 -103 118 -57 193 21 32 -18 74 -56 59 -22 -8 -48 1
-72 27 -37 39 -37 40 53 31 80 -8 90 -5 90 30 0 22 -8 40 -18 40 -10 0 -23 12
-28 28 -8 19 0 24 26 18 20 -5 41 -28 47 -50z"/>
<path d="M910 2425 c10 -34 4 -45 -24 -47 -22 -1 -26 -5 -10 -12 20 -7 20 -16
2 -38 -15 -19 -16 -28 -2 -28 47 0 73 89 42 139 -15 24 -17 21 -8 -14z"/>
<path d="M1685 2414 c-2 -30 2 -35 13 -17 13 20 20 18 30 -10 9 -22 3 -44 -15
-57 -20 -15 -24 -32 -11 -55 12 -20 11 -37 -2 -45 -38 -24 -23 -74 19 -60 27
8 47 -1 65 -29 30 -48 87 -54 103 -11 7 17 29 30 49 30 50 0 62 15 49 63 -8
31 -15 34 -27 14 -13 -21 -17 -18 -18 9 0 21 -9 31 -21 23 -12 -7 -17 -25 -11
-40 14 -36 -13 -51 -49 -28 -24 16 -24 22 -2 37 19 12 21 21 5 31 -38 23 -24
54 19 41 38 -12 39 -10 16 28 -18 28 -39 37 -69 30 -26 -7 -51 0 -61 15 -40
62 -78 77 -82 31z"/>
<path d="M985 2427 c-14 -6 -25 -27 -25 -48 0 -50 -76 -119 -117 -106 -19 6
-11 -10 21 -39 29 -28 48 -55 41 -62 -6 -7 8 -12 32 -12 54 0 55 23 3 55 -22
14 -39 37 -38 50 1 20 3 20 11 0 6 -14 18 -20 28 -14 10 6 29 -8 43 -30 14
-23 44 -41 67 -41 22 0 51 -10 63 -22 15 -15 18 -7 12 29 -10 50 -76 85 -97
51 -16 -26 -49 -2 -49 34 0 17 7 26 16 21 9 -6 17 7 19 28 1 22 -6 39 -16 39
-11 0 -19 8 -19 18 0 10 20 13 45 7 40 -11 42 -8 18 22 -16 18 -29 32 -30 31
-2 0 -14 -6 -28 -11z"/>
<path d="M1514 2286 c-40 -6 -54 -19 -50 -42 10 -53 64 -49 89 6 13 27 22 49
20 47 -2 -2 -28 -7 -59 -11z"/>
<path d="M1631 1904 c-6 -6 -11 -27 -11 -46 0 -19 -18 -41 -41 -48 -31 -10
-39 -26 -32 -67 14 -83 36 -125 60 -117 13 4 35 -5 49 -19 40 -40 74 -33 104
23 15 28 43 50 63 50 45 0 49 31 7 47 -17 7 -29 19 -28 27 9 56 -12 87 -81
121 -44 22 -85 35 -90 29z m109 -116 c0 -36 -48 -36 -78 0 -18 22 -18 30 2 37
38 13 76 -5 76 -37z m20 -77 c0 -39 -39 -60 -64 -35 -11 11 -14 30 -7 42 20
32 71 27 71 -7z"/>
<path d="M1140 1670 c-18 -22 -32 -25 -51 -9 -18 14 -29 15 -38 0 -8 -12 1
-21 18 -21 20 0 29 -16 26 -44 -6 -54 54 -74 73 -24 11 27 8 29 -16 10 -22
-19 -32 -18 -43 0 -10 16 -7 19 11 8 20 -12 23 -7 14 18 -8 20 -6 29 6 22 11
-7 26 2 33 20 17 45 -2 57 -33 20z"/>
<path d="M2182 1403 c-2 -41 -10 -46 -62 -39 -73 11 -74 6 -9 -36 48 -32 52
-31 81 4 17 21 25 27 18 13 -8 -16 -1 -20 19 -13 39 15 41 48 2 48 -15 0 -32
16 -37 35 -7 25 -10 22 -12 -12z"/>
<path d="M933 744 c-14 -21 10 -54 47 -68 21 -8 31 3 33 37 3 46 -57 69 -80
31z"/>
<path d="M2120 3350 c0 -17 9 -46 19 -65 10 -19 24 -69 31 -110 7 -47 23 -75
41 -75 16 0 29 -15 29 -32 0 -23 -8 -27 -25 -14 -35 26 -130 30 -145 5 -19
-29 -50 -3 -50 42 0 46 -45 51 -80 9 -16 -19 -60 -30 -119 -30 -101 0 -130
-13 -105 -48 46 -64 63 -132 32 -132 -17 0 -25 9 -18 20 7 11 3 20 -9 20 -37
0 -22 -57 19 -70 46 -14 86 4 69 31 -6 11 -2 19 10 19 11 0 21 -9 21 -20 0
-11 9 -20 20 -20 11 0 19 7 18 15 -7 42 5 46 37 12 19 -21 28 -29 20 -18 -24
30 -18 42 22 45 27 2 36 -9 33 -40 -3 -26 -1 -29 4 -9 13 52 79 79 195 80 100
1 150 48 90 86 -37 22 -19 54 24 42 32 -8 57 4 90 42 38 44 51 49 72 28 20
-21 16 -33 -23 -65 -58 -48 -47 -69 14 -26 24 16 44 48 44 69 0 22 12 39 28
39 85 0 86 118 1 157 -67 30 -67 30 -88 -25 -32 -83 -156 -82 -206 2 -40 68
-115 91 -115 36z m-160 -322 c0 -17 -9 -25 -20 -18 -11 7 -20 5 -20 -5 0 -24
-80 -26 -123 -3 -60 32 -42 55 48 62 101 7 115 3 115 -36z"/>
<path d="M2735 3205 c-55 -13 -86 -159 -44 -206 34 -38 -30 -246 -65 -212 -7
7 -25 -3 -41 -22 -15 -19 -22 -24 -15 -10 7 15 0 25 -18 25 -19 0 -26 -11 -19
-30 10 -27 34 -38 55 -25 15 9 91 -70 82 -85 -5 -8 13 -15 41 -15 35 0 53 13
61 47 7 26 18 46 25 45 26 -3 103 28 103 42 0 7 32 26 70 41 70 28 80 73 28
129 -10 10 -18 35 -18 55 0 41 -22 46 -55 13 -18 -18 -16 -29 9 -47 23 -17 25
-28 9 -38 -13 -8 -23 -3 -23 12 -1 19 -5 20 -15 3 -11 -18 -26 -16 -55 5 -34
25 -36 32 -10 48 24 16 21 19 -15 20 -46 0 -47 99 -2 117 60 23 -20 104 -88
88z"/>
<path d="M3011 3048 c12 -5 18 -36 13 -68 -5 -39 0 -60 16 -60 13 0 19 13 13
29 -6 15 0 32 13 36 30 10 -18 76 -53 73 -16 -1 -16 -4 -2 -10z"/>
<path d="M2347 2890 c-6 -16 -29 -30 -50 -30 -38 0 -38 -1 1 -42 21 -23 48
-36 60 -29 30 18 102 -25 102 -61 0 -17 9 -25 20 -18 11 7 20 4 20 -5 0 -39
-28 -44 -63 -12 -24 22 -37 25 -37 9 0 -13 -10 -18 -23 -10 -13 8 -18 5 -10
-7 17 -28 103 -42 137 -23 18 10 37 2 52 -23 27 -44 6 -52 -35 -14 -22 20 -25
19 -15 -10 7 -19 6 -34 -2 -32 -42 6 -47 -7 -13 -34 22 -18 28 -26 14 -19 -14
7 -26 1 -26 -14 -1 -14 -10 -6 -20 19 -18 46 -79 63 -79 22 0 -13 6 -18 13
-10 7 7 26 -5 41 -26 17 -25 39 -35 60 -27 21 8 28 5 19 -9 -8 -13 1 -19 22
-16 19 4 33 17 29 30 -3 16 9 19 35 11 24 -7 41 -4 41 9 0 11 -7 20 -15 19
-43 -7 -85 4 -85 23 0 12 9 16 20 9 11 -7 20 -2 20 11 0 17 8 17 31 -2 26 -21
30 -21 25 3 -3 15 -22 40 -41 54 -20 15 -32 33 -27 41 5 8 -17 32 -49 54 -52
35 -88 90 -39 59 27 -16 104 27 89 51 -7 11 -23 7 -40 -9 -17 -17 -51 -25 -84
-19 -30 5 -71 9 -92 9 -29 0 -32 6 -12 29 16 20 32 23 47 10 16 -13 23 -7 23
20 0 46 -47 52 -64 9z"/>
<path d="M2080 2840 c-1 -41 -5 -44 -22 -20 -14 20 -19 21 -14 4 4 -15 14 -26
22 -25 7 0 56 1 107 1 102 0 106 23 5 31 -35 3 -71 17 -80 32 -12 19 -18 13
-18 -23z"/>
<path d="M3155 2782 c-53 -56 -76 -117 -35 -92 27 17 26 -116 -1 -143 -41 -41
26 -68 107 -43 62 19 79 17 110 -11 72 -65 127 -39 110 52 -8 41 -22 55 -57
55 -26 0 -52 9 -59 20 -7 11 -29 20 -50 20 -56 0 -66 32 -29 89 69 106 -7 147
-96 53z"/>
<path d="M3013 2664 c-36 -40 -45 -104 -15 -104 11 0 25 -27 32 -60 13 -61 56
-80 82 -37 10 16 4 20 -17 12 -49 -19 -53 28 -9 88 54 74 -13 167 -73 101z"/>
<path d="M2647 2449 c-9 -23 -18 -25 -39 -7 -36 30 -36 -4 0 -53 33 -45 62
-26 63 43 1 55 -7 61 -24 17z"/>
<path d="M3240 2193 c0 -37 19 -52 52 -39 42 16 33 66 -12 66 -22 0 -40 -12
-40 -27z"/>
<path d="M3527 2125 c-21 -19 -29 -28 -18 -20 33 26 48 16 37 -25 -7 -28 -1
-40 22 -40 17 0 32 -10 32 -22 0 -12 14 -17 30 -11 20 8 30 -1 30 -28 0 -32
-9 -37 -50 -27 -29 7 -63 2 -80 -12 -41 -34 -38 -2 3 43 32 35 29 37 -50 37
-46 0 -83 -8 -83 -18 0 -9 -17 -22 -38 -27 -30 -8 -38 -26 -35 -78 3 -37 -4
-78 -13 -92 -12 -16 -8 -29 14 -37 17 -7 27 -20 21 -30 -6 -10 0 -19 15 -20
61 -6 70 -10 103 -42 19 -19 34 -39 34 -45 -6 -86 40 -125 112 -97 21 8 10 27
-42 74 -39 35 -71 77 -71 94 0 16 -11 42 -25 56 -21 22 -17 23 19 4 24 -12 50
-32 57 -44 26 -42 95 -53 133 -20 52 44 47 52 -54 91 -49 19 -90 43 -90 54 0
11 10 13 22 6 11 -7 35 6 51 29 16 24 38 37 48 31 11 -6 18 30 17 85 0 53 -6
84 -12 70 -11 -28 -80 51 -71 81 9 27 -30 16 -68 -20z"/>
<path d="M3100 2086 c17 -6 46 -25 65 -42 46 -39 67 -19 25 24 -18 17 -52 31
-76 30 -30 -1 -34 -5 -14 -12z"/>
<path d="M2899 2036 c-20 -81 -13 -116 22 -116 22 0 39 9 39 19 0 11 -16 15
-35 9 -32 -10 -32 -9 -3 16 28 22 28 31 5 52 -15 14 -28 23 -28 20z"/>
<path d="M3020 1990 c0 -16 9 -30 20 -30 11 0 20 -13 20 -30 0 -16 7 -29 15
-28 45 7 60 -7 58 -52 -2 -29 -15 -50 -32 -50 -20 0 -16 -10 13 -30 23 -16 39
-46 36 -65 -4 -19 -8 -39 -8 -44 -1 -5 -15 9 -31 30 -38 49 -39 29 -3 -39 l27
-54 32 81 c24 58 44 81 74 81 38 0 40 9 31 95 -8 72 -7 83 8 45 l18 -50 -4 49
c-5 66 -111 98 -150 46 -26 -35 -84 6 -84 59 0 9 -9 16 -20 16 -11 0 -20 -13
-20 -30z"/>
<path d="M3013 1650 c6 -17 -3 -35 -21 -42 -23 -9 -26 -21 -12 -49 34 -62 23
-88 -20 -49 -21 19 -35 43 -29 51 5 9 0 22 -11 29 -50 31 -41 -53 9 -93 41
-32 51 -54 42 -90 -8 -33 -2 -52 18 -60 17 -6 26 -19 21 -28 -6 -9 -2 -22 10
-29 38 -24 23 -88 -20 -80 -48 9 -71 -23 -41 -58 12 -15 16 -44 9 -64 -12 -35
-11 -35 19 2 41 52 41 65 -2 76 -27 7 -25 10 9 12 48 2 111 77 92 109 -8 12 2
15 26 6 37 -13 37 -12 -1 17 -46 36 -35 53 25 37 34 -9 42 -22 32 -52 -8 -28
-4 -37 15 -31 14 5 49 -12 76 -37 62 -57 62 -57 107 4 42 57 30 89 -31 89 -32
0 -37 6 -20 23 12 12 39 16 59 8 20 -7 40 -12 44 -10 5 1 16 -11 26 -28 16
-29 136 -11 136 20 0 26 -64 69 -119 80 -54 11 -60 7 -49 -25 10 -31 8 -33
-10 -8 -32 45 -27 86 9 72 19 -7 26 -3 18 9 -7 12 -2 48 12 80 19 47 19 65 -1
89 -43 52 -109 37 -134 -31 -16 -42 -35 -60 -60 -56 -20 2 -65 -10 -100 -29
-81 -43 -85 -43 -72 7 6 22 3 39 -6 37 -39 -7 -68 3 -68 23 0 12 8 16 18 10
11 -6 23 4 28 24 8 30 10 30 12 2 1 -18 15 -38 32 -44 25 -10 26 -5 5 33 -39
69 -106 106 -82 44z m120 -199 c-6 -17 -3 -35 8 -42 10 -6 19 -22 19 -35 -1
-16 -6 -15 -18 3 -9 14 -24 26 -34 25 -17 -2 -19 8 -11 58 2 11 13 20 25 20
12 0 17 -13 11 -29z"/>
<path d="M3100 1231 c0 -16 -11 -36 -25 -45 -41 -25 -72 -114 -61 -172 7 -33
2 -54 -12 -54 -12 0 -22 -10 -22 -21 0 -12 9 -16 20 -9 26 16 25 -3 -1 -52
-23 -43 -11 -43 176 8 82 22 115 54 56 54 -16 0 -41 18 -57 40 -15 22 -34 34
-41 27 -7 -8 -13 18 -13 56 0 38 -10 79 -22 91 -15 15 -10 30 20 50 23 16 36
36 29 43 -23 22 -47 14 -47 -16z"/>
<path d="M3001 726 c-49 -34 -52 -72 -11 -106 25 -21 38 -19 68 8 32 29 41 30
65 6 53 -53 157 -20 157 50 0 48 -7 57 -38 47 -20 -7 -74 -4 -119 6 -61 14
-91 11 -122 -11z"/>
</g>
</svg>
